<?xml version="1.0" standalone="no"?>
<!DOCTYPE svg PUBLIC "-//W3C//DTD SVG 20010904//EN"
 "http://www.w3.org/TR/2001/REC-SVG-20010904/DTD/svg10.dtd">
<svg version="1.0" xmlns="http://www.w3.org/2000/svg"
 width="1669.000000pt" height="1669.000000pt" viewBox="0 0 1669.000000 1669.000000"
 preserveAspectRatio="xMidYMid meet">
<metadata>
Created by potrace 1.14, written by Peter Selinger 2001-2017
</metadata>
<g transform="translate(0.000000,1669.000000) scale(0.100000,-0.100000)"
fill="#000000" stroke="none">
<path d="M1470 16684 c-41 -14 -60 -30 -75 -59 -13 -30 -15 -389 -15 -3449 0
-1879 3 -3416 7 -3416 5 0 624 615 1377 1368 l1368 1367 -6 -998 -7 -998 -113
-147 c-143 -185 -326 -440 -326 -455 0 -15 -60 -75 1262 1256 639 642 1159
1170 1156 1172 -7 7 -196 -86 -263 -130 -31 -19 -58 -35 -60 -35 -3 0 -5 277
-5 615 0 338 -3 615 -7 615 -5 0 -178 -170 -385 -377 l-377 -377 -126 120
c-70 65 -155 144 -189 176 l-61 56 775 778 c426 428 803 801 837 829 126 103
301 185 473 222 133 28 355 24 482 -10 286 -76 546 -268 674 -498 221 -398
212 -820 -25 -1185 -43 -67 -540 -567 -3256 -3274 l-3205 -3195 0 -1763 c0
-1082 4 -1762 9 -1760 5 2 1091 1083 2413 2403 1322 1320 2431 2422 2466 2448
185 143 410 217 652 217 322 0 616 -130 821 -363 118 -134 194 -271 243 -439
69 -239 43 -557 -64 -768 -73 -145 -69 -141 -2159 -2235 -1125 -1127 -2572
-2578 -3216 -3223 l-1170 -1172 4920 3 4920 2 137 22 c740 119 1352 352 1933
738 386 257 612 462 949 865 644 768 952 1493 1051 2480 22 211 31 728 16 900
-26 305 -32 360 -52 480 -123 731 -485 1486 -953 1988 -266 285 -1343 1441
-1360 1460 l-20 22 465 468 c256 257 506 514 555 572 552 647 881 1388 969
2180 63 570 -6 1195 -195 1761 -122 363 -340 783 -573 1104 -468 641 -1075
1101 -1832 1387 -216 82 -518 164 -745 203 -306 53 91 49 -5195 51 -2684 2
-4887 0 -4895 -2z"/>
</g>
</svg>
